<?xml version="1.0" encoding="utf-8"?>
<svg viewBox="0 0 500 500" xmlns="http://www.w3.org/2000/svg">
  <path d="M 341.5 85.567 L 255.958 85.567 L 255.958 171.725 L 341.5 171.725 L 341.5 85.567 Z" fill="#024DA1" style=""/>
  <path d="M 170.417 257.815 L 84.866 257.815 L 84.866 343.973 L 170.417 343.973 L 170.417 257.815 Z" fill="#024DA1" style=""/>
  <path d="M 170.417 85.567 L 84.866 85.567 L 84.866 171.725 L 170.417 171.725 L 170.417 85.567 Z" fill="#024DA1" style=""/>
  <path d="M 427.051 -0.591 L 341.5 -0.591 L 341.5 85.567 L 427.051 85.567 L 427.051 -0.591 Z" fill="#ED1650" style=""/>
  <path d="M 255.958 171.725 L 170.417 171.725 L 170.417 257.885 L 255.958 257.885 L 255.958 171.725 Z" fill="#ED1650" style=""/>
  <path d="M 84.866 343.973 L -0.677 343.973 L -0.677 430.118 L 84.866 430.118 L 84.866 343.973 Z" fill="#ED1650" style=""/>
  <path d="M 84.866 171.725 L -0.677 171.725 L -0.677 257.885 L 84.866 257.885 L 84.866 171.725 Z" fill="#ED1650" style=""/>
  <path d="M 84.866 -0.591 L -0.677 -0.591 L -0.677 85.567 L 84.866 85.567 L 84.866 -0.591 Z" fill="#ED1650" style=""/>
  <path d="M 255.958 -0.591 L 170.417 -0.591 L 170.417 85.567 L 255.958 85.567 L 255.958 -0.591 Z" fill="#ED1650" style=""/>
</svg>