<svg width="180" height="33" viewBox="0 0 180 33" fill="none" xmlns="http://www.w3.org/2000/svg">
<path d="M48.0216 26.1337L46.8492 22.568H39.6319L38.4317 26.1384H34.1582L40.3603 8.39597C40.8043 7.08474 41.7686 6.40234 43.3828 6.40234C44.9206 6.40234 45.9265 7.10105 46.3543 8.37036L52.3483 26.1384L48.0216 26.1337ZM43.3041 10.7273L40.4644 19.4145H46.0421L43.3041 10.7273Z" fill="#024DA1"/>
<path d="M62.1972 19.1258H58.3354V26.1338H54.1729V8.9178C54.1729 7.49943 55.084 6.60742 56.6218 6.60742H62.4585C66.2372 6.60742 68.7393 8.99698 68.7393 12.8538C68.7416 16.7642 66.1585 19.1258 62.1972 19.1258ZM61.2838 9.75857H58.3354V15.9537H61.8527C63.7027 15.9537 64.8751 14.8242 64.8751 12.8562C64.8797 10.4573 63.3697 9.75857 61.2838 9.75857Z" fill="#024DA1"/>
<path d="M79.2912 19.1258H75.434V26.1338H71.2715V8.9178C71.2715 7.49943 72.1826 6.60742 73.7204 6.60742H79.5572C83.3358 6.60742 85.8379 8.99698 85.8379 12.8538C85.831 16.7642 83.2502 19.1258 79.2912 19.1258ZM78.3778 9.75857H75.434V15.9537H78.9513C80.8013 15.9537 81.9737 14.8242 81.9737 12.8562C81.9737 10.4573 80.4637 9.75857 78.3778 9.75857Z" fill="#024DA1"/>
<path d="M87.8887 16.3958C87.8887 9.80937 91.8199 6.47656 97.2959 6.47656C99.1205 6.47656 100.97 6.87017 102.925 7.44776L104.488 7.91356L103.889 11.4071L102.168 10.9226C100.476 10.4242 99.0164 10.1098 97.6613 10.1098C94.1925 10.1098 92.1113 12.157 92.1113 16.5123C92.1113 21.0003 94.248 23.1266 97.7399 23.1266C98.7489 23.1287 99.7558 23.032 100.746 22.8378V18.9414H96.7756V15.9137H102.222C103.706 15.9137 104.67 16.8453 104.67 18.1961V22.3348C104.67 24.2236 104.28 25.09 102.589 25.5628C100.875 26.0454 99.1058 26.3014 97.326 26.3244C91.7714 26.3174 87.8887 23.0638 87.8887 16.3958Z" fill="#ED1650"/>
<path d="M120.227 26.1337L119.054 22.568H111.837L110.637 26.1384H106.363L112.565 8.39597C113.009 7.08474 113.974 6.40234 115.588 6.40234C117.126 6.40234 118.132 7.10105 118.559 8.37036L124.553 26.1384L120.227 26.1337ZM115.509 10.7273L112.679 19.4145H118.256L115.509 10.7273Z" fill="#ED1650"/>
<path d="M126.376 26.1338V6.60742H130.675V26.1338H126.376Z" fill="#ED1650"/>
<path d="M137.502 26.1342H133.802V9.10219C133.802 7.34379 134.923 6.42383 136.808 6.42383C138.346 6.42383 139.232 7.21103 139.814 8.2358L146.59 20.307V6.60782H150.315V23.6422C150.315 25.3726 149.196 26.2926 147.309 26.2926C145.799 26.2926 144.939 25.5054 144.365 24.5062L137.502 12.4094V26.1342Z" fill="#ED1650"/>
<path d="M155.039 26.3969C153.735 26.3969 152.958 25.6097 152.958 24.3497C152.958 23.0897 153.74 22.3281 155.039 22.3281C156.339 22.3281 157.097 23.1153 157.097 24.3497C157.097 25.5841 156.316 26.3969 155.039 26.3969Z" fill="#ED1650"/>
<path d="M161.528 9.86391C160.224 9.86391 159.468 9.10232 159.468 7.89356C159.468 6.68481 160.224 5.95117 161.528 5.95117C162.832 5.95117 163.586 6.71276 163.586 7.89356C163.586 9.07437 162.83 9.86391 161.528 9.86391ZM159.755 26.1344V11.7271H163.3V26.1344H159.755Z" fill="#ED1650"/>
<path d="M172.89 26.2943C168.563 26.2943 165.932 23.6159 165.932 18.944C165.932 14.2207 168.693 11.5703 172.966 11.5703C177.24 11.5703 179.925 14.2207 179.925 18.944C179.925 23.6672 177.163 26.2943 172.89 26.2943ZM172.89 14.2743C170.675 14.2743 169.578 15.9535 169.578 18.944C169.578 22.0159 170.779 23.6159 172.966 23.6159C175.154 23.6159 176.303 21.9856 176.303 18.944C176.303 15.9023 175.078 14.272 172.89 14.272V14.2743Z" fill="#ED1650"/>
<path d="M26.0573 6.56055H19.543V13.1214H26.0573V6.56055Z" fill="#024DA1"/>
<path d="M13.029 19.6777H6.51465V26.2386H13.029V19.6777Z" fill="#024DA1"/>
<path d="M13.029 6.56055H6.51465V13.1214H13.029V6.56055Z" fill="#024DA1"/>
<path d="M32.5719 0H26.0576V6.56082H32.5719V0Z" fill="#ED1650"/>
<path d="M19.5436 13.1221H13.0293V19.6829H19.5436V13.1221Z" fill="#ED1650"/>
<path d="M6.51431 26.2383H0V32.7991H6.51431V26.2383Z" fill="#ED1650"/>
<path d="M6.51431 13.1221H0V19.6829H6.51431V13.1221Z" fill="#ED1650"/>
<path d="M6.51431 0H0V6.56082H6.51431V0Z" fill="#ED1650"/>
<path d="M19.5436 0H13.0293V6.56082H19.5436V0Z" fill="#ED1650"/>
</svg>